<svg width="138" height="99" viewBox="0 0 138 99" fill="none" xmlns="http://www.w3.org/2000/svg">
<path d="M80.791 35.3944C80.811 35.4593 80.1842 36.6197 79.3978 37.9817L77.9754 40.4453L77.3448 40.642L76.7142 40.8387L89.6233 48.3052L102.527 55.7554L103.099 58.7958C103.615 61.4839 103.657 61.8825 103.472 62.203C103.293 62.5134 103.291 62.5922 103.485 62.7041C103.614 62.7787 105.905 64.3821 108.583 66.2618C114.072 70.1121 113.657 69.8858 116.437 70.5691C117.307 70.7779 118.306 71.0875 118.646 71.2441C119.241 71.5074 121.156 72.893 134.022 82.3243C135.807 83.6353 137.285 84.756 137.333 84.8234C137.369 84.8845 137.431 85.2005 137.47 85.5304C137.521 86.0139 137.496 86.1327 137.289 86.267C137.155 86.3499 135.542 88.2229 133.706 90.4339C131.869 92.645 129.635 95.3208 128.748 96.3844C127.85 97.4418 127.028 98.3427 126.929 98.3655C126.813 98.392 126.35 98.2983 125.91 98.1646L125.08 97.912L122.572 95.1157C121.178 93.5761 118.241 90.3048 116.03 87.8401C113.82 85.3754 111.572 82.8759 111.047 82.2924C110.511 81.7028 108.274 79.2094 106.064 76.7448C103.853 74.2801 101.441 71.5922 100.704 70.7794L99.373 69.3034L98.9096 69.4097C98.3798 69.5311 98.0982 69.4219 95.8215 68.241C94.2946 67.4529 94.148 67.4083 93.9167 67.8089C93.7259 68.1394 93.3483 68.1217 92.6308 67.7475C92.2804 67.5585 91.9068 67.4096 91.8082 67.4061C91.7097 67.4027 91.2334 67.2078 90.7421 66.9642L89.8515 66.5168L89.5937 66.8887C89.4449 67.0966 89.237 67.6308 89.12 68.0573C88.9339 68.7777 88.8695 68.9141 88.3478 69.4943C87.498 70.419 86.8877 71.5756 86.7275 72.5246C86.6486 72.9598 86.5182 75.1011 86.4193 77.2872C86.3312 79.4797 86.1976 81.7259 86.1148 82.2923C85.9738 83.3326 85.5944 84.4622 85.2654 84.8331C84.8678 85.2979 84.8463 85.2854 80.6969 82.9699C76.3214 80.5238 76.3322 80.53 76.0234 79.3236C75.8868 78.7641 75.9081 78.6028 76.1452 78.1922C76.3013 77.9218 76.6858 77.5295 77.0332 77.2761L77.6328 76.8345L78.0948 73.1487C78.732 68.0152 78.7212 68.5564 78.1703 67.7443C77.9189 67.3588 77.6276 66.8435 77.5363 66.6038L77.3626 66.1831L76.1078 66.3666L74.8471 66.5601L72.949 65.5443C71.8918 64.9874 70.6034 64.2836 70.0648 63.9726L69.0954 63.4129L68.7362 62.2441L68.3769 61.0753L67.1963 60.4337C66.1184 59.8381 64.427 58.688 63.889 58.1771C63.6702 57.984 63.6644 57.994 63.4449 58.5483C63.2551 59.0262 63.17 59.1239 62.9556 59.147C62.8074 59.155 62.6393 59.0979 62.5704 59.0181C62.3797 58.8012 62.6789 57.7855 63.3649 56.2988C64.0031 54.9447 64.5535 53.5934 64.5235 53.496C64.5135 53.4635 64.3438 53.459 64.1402 53.4883C63.8596 53.5266 63.3882 53.8954 61.9841 55.2079C59.8135 57.2261 59.2966 57.6488 57.7515 58.7329C53.0939 61.9993 48.3445 64.131 42.8927 65.3898C40.0562 66.049 38.716 66.1564 34.4654 66.1059C32.1538 66.0799 32.0064 66.0615 31.7791 65.7834C31.1298 64.9679 30.9765 63.691 31.007 59.2354C31.0212 57.4943 30.99 55.8072 30.9332 55.5074L30.824 54.9503L34.6793 54.6658C38.8914 54.3602 40.3838 54.1136 42.4932 53.3953C44.9129 52.5624 46.8366 51.6434 50.0547 49.7759C53.0164 48.0541 54.381 46.9592 55.126 45.6935L55.3978 45.2228L55.0208 45.0052L54.6438 44.7875L55.2509 43.736C55.5863 43.1551 55.8365 42.672 55.8041 42.6533C55.7718 42.6347 55.564 42.6215 55.3388 42.6384C54.5433 42.6731 54.0837 42.6482 54.0091 42.5784C53.9718 42.5435 53.7432 42.4917 53.5081 42.4761C52.9997 42.4362 52.8555 42.3129 50.9691 40.1823C49.6075 38.6351 48.8499 37.9573 46.9206 36.5229C44.8089 34.9566 43.2991 33.9647 40.757 32.4971C36.6316 30.1153 33.147 27.7429 32.118 26.6147C31.895 26.3791 31.6329 25.9874 31.5465 25.7639C31.4235 25.4793 31.2436 25.2686 30.9528 25.1007C30.5758 24.883 30.5235 24.7994 30.4981 24.3708L30.48 23.8797L25.966 21.3002L21.4578 18.7108L21.2391 19.2388L21.0204 19.7669L18.3061 18.1997L15.6024 16.6388L15.8337 16.2382L16.065 15.8376L13.2644 14.2207L10.4639 12.6038L10.1951 12.7958C10.0545 12.9149 9.9173 13.1027 9.89179 13.2215C9.85235 13.4391 9.78193 13.4118 8.89869 12.9019C7.97235 12.3671 7.93504 12.3322 7.80113 11.8676C7.72129 11.6079 7.6299 11.3682 7.57605 11.3371C7.53296 11.3122 7.35008 11.3802 7.15484 11.4945C6.81981 11.7016 6.80904 11.6954 5.90424 11.173L4.98868 10.6444L5.24887 10.1938L5.51484 9.7331L2.89161 8.23193L0.279161 6.73698L0.316322 6.05073C0.369575 5.01324 0.99244 3.98415 1.86194 3.49804L2.50308 3.13379L5.1271 4.60872L7.7561 6.09986L8.99345 3.95672C9.66994 2.785 10.4944 1.43165 10.81 0.959585L11.4116 0.0917802L11.6564 0.51353C11.8862 0.886575 12.0312 0.983655 13.1323 1.53924L14.3469 2.14699L13.6125 3.41886L12.8725 4.70074L12.6898 6.75843C12.5845 7.88606 12.4782 8.86621 12.4435 8.9263C12.3972 9.00641 13.1662 9.49043 15.1266 10.6223L17.8733 12.2081L18.012 11.9677C18.145 11.7374 18.1831 11.746 19.1218 12.2346C19.9039 12.6461 20.2568 12.7563 20.8687 12.8158C21.8466 12.9131 23.261 12.5279 24.2669 11.8802L25.0155 11.4044L26.9171 12.4889C27.9619 13.0922 30.0796 14.2748 31.6215 15.1116C34.2737 16.5627 34.4303 16.6397 34.4912 16.4346C34.5357 16.2332 34.5895 16.2643 35.2392 16.7062C35.8185 17.1208 36.062 17.2213 36.6343 17.3247C37.8499 17.5325 43.3098 20.3643 50.737 24.639L54.8682 27.0108L55.0816 26.8403C55.2106 26.7412 55.4216 26.6494 55.5591 26.6352C55.7792 26.6021 56.5033 26.94 56.9798 27.3086C57.0602 27.3684 58.037 27.8656 59.1439 28.4111C60.607 29.1357 61.3344 29.5423 61.7944 29.9147C62.319 30.3245 62.5295 30.4326 62.9759 30.5301C63.4827 30.6224 63.5796 30.6784 64.1549 31.2242C64.5014 31.5444 65.2515 32.111 65.7992 32.4806C66.3635 32.8465 66.797 33.1902 66.7681 33.2403C66.664 33.4206 65.4643 33.4089 65.1627 33.2348C64.8073 33.0296 63.9626 32.8757 63.8932 32.9959C63.8643 33.046 64.2628 33.2761 64.7707 33.5158C65.6356 33.9084 65.716 33.9681 65.7784 34.2579C65.8409 34.5477 65.9644 34.6323 69.185 36.4918C71.0269 37.5552 72.5523 38.3958 72.5696 38.3657C72.5928 38.3257 72.5941 38.0995 72.5847 37.867C72.5635 37.4809 72.693 37.1818 74.0014 34.866L75.4434 32.2936L78.0998 33.7872C79.5597 34.6167 80.7653 35.3395 80.791 35.3944ZM78.4584 60.9271C78.2033 60.8465 77.9531 60.7822 77.9143 60.7999C77.8704 60.8012 77.7697 61.0502 77.6948 61.3541C77.5596 61.8369 77.5746 61.8856 77.8329 61.8612C78.3487 61.8385 79.4023 61.6056 79.4543 61.5154C79.5237 61.3952 79.0605 61.1278 78.4584 60.9271ZM73.4634 59.0313C72.9731 59.4827 72.4531 59.4629 72.0079 58.9654C71.8487 58.7934 71.7052 58.6438 71.6945 58.6376C71.6729 58.6252 71.5242 58.8331 71.3738 59.0934C71.2177 59.3638 70.7781 59.9512 70.392 60.396L69.7043 61.2141L69.8863 61.7197L70.0683 62.2254L71.689 63.1744C72.583 63.6906 73.7852 64.3446 74.3577 64.6217L75.4049 65.1462L76.6952 64.8764L77.9856 64.6066L78.214 63.9373C78.3402 63.5695 78.5416 63.0715 78.6696 62.8249C78.7918 62.5884 78.8693 62.3794 78.8262 62.3546C78.7831 62.3297 78.5737 62.369 78.342 62.4222C78.121 62.4815 77.5001 62.537 76.9736 62.5535C76.4471 62.5699 75.5737 62.6399 75.0456 62.7089C74.2981 62.7847 73.9809 62.7618 73.7009 62.6001C73.2593 62.3452 73.0328 62.0408 73.0381 61.6834C73.0345 61.4409 73.1065 61.4157 73.6572 61.5067C74.8521 61.6758 75.5705 61.4763 76.1946 60.7684C76.3252 60.6168 76.4947 60.4476 76.5733 60.3862C76.7023 60.2871 76.5308 60.1613 75.2913 59.4724L73.8579 58.6715L73.4634 59.0313Z" fill="white"/>
</svg>
