<svg width="133" height="98" viewBox="0 0 133 98" fill="none" xmlns="http://www.w3.org/2000/svg">
<path fill-rule="evenodd" clip-rule="evenodd" d="M36.0695 14.8451L22.8503 36.917L32.8844 37.7779L41.3691 23.6112L36.0695 14.8451ZM70.6597 49.4693C73.5397 51.2759 74.4582 55.1043 72.7096 58.0239C70.9628 60.9406 67.2161 61.8345 64.3361 60.0278C61.459 58.2229 60.537 54.4003 62.2839 51.4837C64.0325 48.5641 67.7826 47.6644 70.6597 49.4693ZM69.8972 50.7424C67.7115 49.3713 64.8645 50.0494 63.5353 52.2687C62.2113 54.4794 62.9094 57.3893 65.0952 58.7604C67.2837 60.1333 70.1342 59.4495 71.4582 57.2388C72.7874 55.0195 72.0858 52.1154 69.8972 50.7424ZM71.96 61.3034L74.2457 62.7373L68.5928 72.176L76.7957 77.3218L82.4486 67.8831L95.5029 76.0722L103.01 63.5374L82.1558 50.4552L84.4 46.7081L65.56 34.8894L63.3158 38.6366L42.7329 25.7246L35.2256 38.2594L50.5628 47.8807L44.9099 57.3194L53.1156 62.4669L58.7686 53.0282L59.7714 53.6573C59.387 56.6684 60.7415 59.795 63.4558 61.4977C66.1758 63.204 69.5082 63.0215 71.96 61.3034ZM132.083 74.6976L123.951 69.5966L110.403 92.2183L118.534 97.3192L132.083 74.6976ZM122.397 68.6216L116.96 65.2107L103.412 87.8324L108.849 91.2432L122.397 68.6216ZM115.584 64.7257L102.365 86.7976L97.056 78.0337L105.541 63.8669L115.584 64.7257ZM72.2916 30.6852L85.0087 38.6629L82.236 43.2925L69.5188 35.3149L72.2916 30.6852ZM33.2712 12.7116L14.1683 0.728042L0.61993 23.3497L19.7228 35.3332L33.2712 12.7116Z" fill="white"/>
</svg>
