<svg width="21" height="21" viewBox="0 0 21 21" fill="none" xmlns="http://www.w3.org/2000/svg">
<path d="M12.3493 10.4989L20.612 2.24836C20.859 2.00136 20.9978 1.66636 20.9978 1.31706C20.9978 0.967751 20.859 0.632753 20.612 0.385757C20.3651 0.138761 20.0301 0 19.6808 0C19.3316 0 18.9966 0.138761 18.7496 0.385757L10.5 8.6494L2.25035 0.385757C2.00338 0.138761 1.66842 3.10129e-07 1.31915 3.12731e-07C0.969886 3.15334e-07 0.634924 0.138761 0.387954 0.385757C0.140984 0.632753 0.00223861 0.967751 0.0022386 1.31706C0.0022386 1.66636 0.140984 2.00136 0.387954 2.24836L8.65072 10.4989L0.387954 18.7494C0.265025 18.8713 0.167453 19.0164 0.100868 19.1763C0.0342819 19.3361 0 19.5075 0 19.6807C0 19.8539 0.0342819 20.0253 0.100868 20.1852C0.167453 20.345 0.265025 20.4901 0.387954 20.612C0.50988 20.7349 0.654938 20.8325 0.814763 20.8991C0.974587 20.9657 1.14601 21 1.31915 21C1.49229 21 1.66372 20.9657 1.82355 20.8991C1.98337 20.8325 2.12843 20.7349 2.25035 20.612L10.5 12.3484L18.7496 20.612C18.8716 20.7349 19.0166 20.8325 19.1765 20.8991C19.3363 20.9657 19.5077 21 19.6808 21C19.854 21 20.0254 20.9657 20.1852 20.8991C20.3451 20.8325 20.4901 20.7349 20.612 20.612C20.735 20.4901 20.8325 20.345 20.8991 20.1852C20.9657 20.0253 21 19.8539 21 19.6807C21 19.5075 20.9657 19.3361 20.8991 19.1763C20.8325 19.0164 20.735 18.8713 20.612 18.7494L12.3493 10.4989Z" fill="#6D758C"/>
</svg>
