<svg width="22" height="25" viewBox="0 0 22 25" fill="none" xmlns="http://www.w3.org/2000/svg">
<path d="M1.57143 22.6563C1.57143 23.2779 1.81977 23.874 2.26182 24.3135C2.70387 24.7531 3.30342 25 3.92857 25H18.0714C18.6966 25 19.2961 24.7531 19.7382 24.3135C20.1802 23.874 20.4286 23.2779 20.4286 22.6563V6.25001H1.57143V22.6563ZM14.9286 10.1563C14.9286 9.94906 15.0114 9.75034 15.1587 9.60383C15.3061 9.45732 15.5059 9.37501 15.7143 9.37501C15.9227 9.37501 16.1225 9.45732 16.2699 9.60383C16.4172 9.75034 16.5 9.94906 16.5 10.1563V21.0938C16.5 21.301 16.4172 21.4997 16.2699 21.6462C16.1225 21.7927 15.9227 21.875 15.7143 21.875C15.5059 21.875 15.3061 21.7927 15.1587 21.6462C15.0114 21.4997 14.9286 21.301 14.9286 21.0938V10.1563ZM10.2143 10.1563C10.2143 9.94906 10.2971 9.75034 10.4444 9.60383C10.5918 9.45732 10.7916 9.37501 11 9.37501C11.2084 9.37501 11.4082 9.45732 11.5556 9.60383C11.7029 9.75034 11.7857 9.94906 11.7857 10.1563V21.0938C11.7857 21.301 11.7029 21.4997 11.5556 21.6462C11.4082 21.7927 11.2084 21.875 11 21.875C10.7916 21.875 10.5918 21.7927 10.4444 21.6462C10.2971 21.4997 10.2143 21.301 10.2143 21.0938V10.1563ZM5.5 10.1563C5.5 9.94906 5.58278 9.75034 5.73013 9.60383C5.87748 9.45732 6.07733 9.37501 6.28571 9.37501C6.4941 9.37501 6.69395 9.45732 6.8413 9.60383C6.98865 9.75034 7.07143 9.94906 7.07143 10.1563V21.0938C7.07143 21.301 6.98865 21.4997 6.8413 21.6462C6.69395 21.7927 6.4941 21.875 6.28571 21.875C6.07733 21.875 5.87748 21.7927 5.73013 21.6462C5.58278 21.4997 5.5 21.301 5.5 21.0938V10.1563ZM21.2143 1.56251H15.3214L14.8598 0.649423C14.762 0.454215 14.6114 0.29001 14.4249 0.175281C14.2384 0.0605526 14.0233 -0.00014785 13.804 8.5609e-06H8.19107C7.97224 -0.000827891 7.7576 0.0596463 7.57173 0.174503C7.38587 0.289359 7.23631 0.453951 7.14018 0.649423L6.67857 1.56251H0.785714C0.57733 1.56251 0.37748 1.64482 0.23013 1.79133C0.0827804 1.93784 0 2.13656 0 2.34376L0 3.90626C0 4.11346 0.0827804 4.31217 0.23013 4.45869C0.37748 4.6052 0.57733 4.68751 0.785714 4.68751H21.2143C21.4227 4.68751 21.6225 4.6052 21.7699 4.45869C21.9172 4.31217 22 4.11346 22 3.90626V2.34376C22 2.13656 21.9172 1.93784 21.7699 1.79133C21.6225 1.64482 21.4227 1.56251 21.2143 1.56251Z" fill="#FF7A7A"/>
</svg>
