<svg width="25" height="25" viewBox="0 0 25 25" fill="none" xmlns="http://www.w3.org/2000/svg">
<path d="M24.5415 11.3926L13.6074 0.458496C12.9961 -0.152832 12.0044 -0.152832 11.3926 0.458496L0.458496 11.3926C-0.152832 12.0044 -0.152832 12.9956 0.458496 13.6074L11.3926 24.5415C12.0039 25.1533 12.9956 25.1533 13.6074 24.5415L24.5415 13.6074C25.1528 12.9956 25.1528 12.0044 24.5415 11.3926ZM19.6108 12.0059L15.499 15.8013C15.249 16.0322 14.8433 15.855 14.8433 15.5142V12.8906H10.1558V16.0156C10.1558 16.2314 9.98096 16.4062 9.76514 16.4062H8.20264C7.98682 16.4062 7.81201 16.2314 7.81201 16.0156V12.1094C7.81201 11.2466 8.51172 10.5469 9.37451 10.5469H14.8433V7.92334C14.8433 7.58301 15.2485 7.40527 15.499 7.63623L19.6108 11.4316C19.7783 11.5864 19.7783 11.8511 19.6108 12.0059Z" fill="white"/>
</svg>
