<svg width="25" height="20" viewBox="0 0 25 20" fill="none" xmlns="http://www.w3.org/2000/svg">
<path d="M0 1.65789C0 0.742265 0.742265 0 1.65789 0H23.3421C24.2577 0 25 0.742265 25 1.65789C25 2.57352 24.2577 3.31579 23.3421 3.31579H1.65789C0.742265 3.31579 0 2.57352 0 1.65789ZM0 10C0 9.06984 0.754047 8.31579 1.68421 8.31579H23.3158C24.246 8.31579 25 9.06984 25 10C25 10.9302 24.246 11.6842 23.3158 11.6842H1.68421C0.754047 11.6842 0 10.9302 0 10ZM0 18.3421C0 17.4265 0.742265 16.6842 1.65789 16.6842H23.3421C24.2577 16.6842 25 17.4265 25 18.3421C25 19.2577 24.2577 20 23.3421 20H1.65789C0.742265 20 0 19.2577 0 18.3421Z" fill="white"/>
</svg>
