<svg width="25" height="20" viewBox="0 0 25 20" fill="none" xmlns="http://www.w3.org/2000/svg">
<path transform="translate(0, 2)" d="M0 1.24342C0 0.592958 0.592958 0 1.24342 0H18.6566C19.307 0 19.9 0.592958 19.9 1.24342C19.9 1.89388 19.307 2.48684 18.6566 2.48684H1.24342C0.592958 2.48684 0 1.89388 0 1.24342ZM0 7.5C0 6.80238 0.603237 6.24342 1.31579 6.24342H18.6842C19.3968 6.24342 20 6.80238 20 7.5C20 8.19762 19.3968 8.75658 18.6842 8.75658H1.31579C0.603237 8.75658 0 8.19762 0 7.5ZM0 13.7566C0 13.1061 0.592958 12.5132 1.24342 12.5132H18.6566C19.307 12.5132 19.9 13.1061 19.9 13.7566C19.9 14.407 19.307 15 18.6566 15H1.24342C0.592958 15 0 14.407 0 13.7566Z" fill="white"/>
</svg>
