<svg width="20" height="20" viewBox="0 0 20 20" fill="none" xmlns="http://www.w3.org/2000/svg">
<path d="M17.0625 2.9375C16.1373 2.00617 15.0369 1.26714 13.8248 0.762981C12.6127 0.258827 11.3128 -0.000480999 10 6.69799e-07C7.34784 6.69799e-07 4.8043 1.05357 2.92893 2.92893C1.05357 4.8043 0 7.34784 0 10C0 12.6522 1.05357 15.1957 2.92893 17.0711C4.8043 18.9464 7.34784 20 10 20C14.6625 20 18.55 16.8125 19.6625 12.5H17.0625C16.5476 13.9619 15.5917 15.228 14.3267 16.1235C13.0617 17.0191 11.5499 17.5001 10 17.5C8.01088 17.5 6.10322 16.7098 4.6967 15.3033C3.29018 13.8968 2.5 11.9891 2.5 10C2.5 8.01088 3.29018 6.10322 4.6967 4.6967C6.10322 3.29018 8.01088 2.5 10 2.5C12.075 2.5 13.925 3.3625 15.275 4.725L11.25 8.75H20V6.69799e-07L17.0625 2.9375Z" fill="white"/>
</svg>
