<svg width="27" height="27" viewBox="0 0 27 27" fill="none" xmlns="http://www.w3.org/2000/svg">
<path d="M26.1062 24.1415L26.1045 24.1398L18.8309 16.9285C20.1272 15.2139 20.9353 13.0738 20.9353 10.7283C20.9353 5.09295 16.3482 0.5 10.7176 0.5C5.08711 0.5 0.5 5.09295 0.5 10.7283C0.5 16.3637 5.08711 20.9567 10.7176 20.9567C13.0217 20.9567 15.1926 20.1826 16.916 18.8525L24.1519 26.0964C24.4388 26.3836 24.7908 26.5 25.1291 26.5C25.4673 26.5 25.8193 26.3836 26.1062 26.0964C26.6313 25.5708 26.6313 24.6671 26.1062 24.1415ZM10.681 18.1946C6.55719 18.1946 3.22351 14.858 3.22351 10.7283C3.22351 6.59868 6.55719 3.26212 10.681 3.26212C14.8047 3.26212 18.1384 6.59868 18.1384 10.7283C18.1384 14.858 14.8047 18.1946 10.681 18.1946Z" fill="#6D758C" stroke="#6D758C"/>
</svg>
