<svg width="35" height="24" viewBox="0 0 35 24" fill="none" xmlns="http://www.w3.org/2000/svg">
<path d="M29.4 10.425C29.6242 9.85179 29.75 9.225 29.75 8.57143C29.75 5.73214 27.3984 3.42857 24.5 3.42857C23.4227 3.42857 22.4164 3.75 21.5852 4.29643C20.0703 1.725 17.243 0 14 0C9.16562 0 5.25 3.83571 5.25 8.57143C5.25 8.71607 5.25547 8.86071 5.26094 9.00536C2.19844 10.0607 0 12.9214 0 16.2857C0 20.5446 3.52734 24 7.875 24H28C31.8664 24 35 20.9304 35 17.1429C35 13.8268 32.5938 11.0571 29.4 10.425ZM21.5141 13.7143H17.9375V19.7143C17.9375 20.1857 17.5438 20.5714 17.0625 20.5714H14.4375C13.9563 20.5714 13.5625 20.1857 13.5625 19.7143V13.7143H9.98594C9.20391 13.7143 8.81563 12.7929 9.36797 12.2518L15.132 6.60536C15.4711 6.27321 16.0289 6.27321 16.368 6.60536L22.132 12.2518C22.6844 12.7929 22.2906 13.7143 21.5141 13.7143Z" fill="#6D758C"/>
</svg>
