<svg width="31" height="25" viewBox="0 0 31 25" fill="none" xmlns="http://www.w3.org/2000/svg">
<g clip-path="url(#clip0_1653_669)">
<path d="M1.01208 24.1491C1.01208 24.6186 1.37908 25 1.8297 25H26.2403C26.6915 25 27.0579 24.6181 27.0579 24.1491V13.7356L1.01208 9.80709V24.1491ZM6.57504 23.1874H3.13681V22.4945H6.57557V23.1874H6.57504ZM11.3273 23.1879H7.88908V22.495H11.3278V23.1879H11.3273ZM9.60793 15.2616C10.4399 15.2616 11.3273 17.1663 11.3273 18.378C11.3273 19.5904 11.3273 21.7533 11.3273 21.7533H7.88855C7.88855 21.7533 7.88855 19.5898 7.88855 18.378C7.88855 17.1663 8.77593 15.2611 9.60793 15.2616ZM4.85566 15.2616C5.68765 15.2616 6.57504 17.1663 6.57504 18.378C6.57504 19.5904 6.57504 21.7533 6.57504 21.7533H3.13681C3.13681 21.7533 3.13681 19.5898 3.13681 18.378C3.13681 17.1663 4.0242 15.2611 4.85619 15.2616H4.85566Z" fill="white"/>
<path d="M29.3488 7.15077C29.3057 7.15077 29.1352 7.148 28.9227 7.14579V14.0172L28.3368 13.929V17.2955H29.3488C30.2607 17.2955 31 16.6996 31 15.9651V8.48171C31 7.74723 30.2607 7.15133 29.3488 7.15133V7.15077Z" fill="white"/>
<path d="M27.2124 4.57317H19.9742V3.24778C19.9742 3.24778 19.9742 3.24446 19.9742 3.24279C19.9716 1.45455 18.5728 0 16.8535 0H11.2703C9.55088 0 8.15215 1.45455 8.14948 3.24279C8.14948 3.24446 8.14948 3.24612 8.14948 3.24778V4.57317H0.431976C0.303608 4.63636 0 5.13137 0 5.99834V8.30987L27.6443 12.4795V5.99834C27.6443 5.13137 27.3413 4.63636 27.2124 4.57317ZM18.0567 4.57317H10.067V3.24778C10.067 3.24778 10.067 3.24446 10.067 3.24279C10.0697 2.55488 10.6082 1.99557 11.2703 1.99557H16.8535C17.5155 1.99557 18.054 2.55488 18.0567 3.24279C18.0567 3.24446 18.0567 3.24612 18.0567 3.24778V4.57317Z" fill="white"/>
</g>
<defs>
<clipPath id="clip0_1653_669">
<rect width="31" height="25" fill="white"/>
</clipPath>
</defs>
</svg>
