<svg width="38" height="28" viewBox="0 0 38 28" fill="none" xmlns="http://www.w3.org/2000/svg">
<path d="M22.3255 10.344C22.3308 10.3613 22.1638 10.6705 21.9542 11.0334L21.5752 11.6899L21.4071 11.7424L21.2391 11.7948L24.6791 13.7844L28.1177 15.7697L28.27 16.5799C28.4075 17.2963 28.4189 17.4025 28.3696 17.4879C28.3218 17.5706 28.3212 17.5916 28.3728 17.6214C28.4073 17.6413 29.0179 18.0686 29.7314 18.5695C31.1942 19.5955 31.0836 19.5352 31.8242 19.7173C32.0562 19.7729 32.3224 19.8554 32.4131 19.8971C32.5716 19.9673 33.0817 20.3365 36.5103 22.8498C36.986 23.1991 37.38 23.4978 37.3926 23.5157C37.4023 23.532 37.4187 23.6162 37.4292 23.7041C37.4429 23.833 37.4361 23.8646 37.3809 23.9004C37.3452 23.9225 36.9155 24.4216 36.426 25.0108C35.9366 25.6 35.3412 26.3131 35.1049 26.5965C34.8657 26.8782 34.6467 27.1183 34.6202 27.1244C34.5893 27.1315 34.466 27.1065 34.3488 27.0709L34.1274 27.0035L33.4592 26.2584C33.0876 25.8481 32.305 24.9764 31.7159 24.3196C31.1268 23.6628 30.5278 22.9968 30.388 22.8413C30.2452 22.6842 29.6491 22.0197 29.06 21.3629C28.471 20.7062 27.8282 19.9899 27.6318 19.7733L27.2772 19.38L27.1537 19.4083C27.0125 19.4407 26.9375 19.4116 26.3308 19.0969C25.9239 18.8869 25.8848 18.875 25.8232 18.9817C25.7723 19.0698 25.6717 19.0651 25.4805 18.9654C25.3871 18.915 25.2876 18.8753 25.2613 18.8744C25.2351 18.8735 25.1081 18.8216 24.9772 18.7566L24.7399 18.6374L24.6712 18.7365C24.6315 18.7919 24.5761 18.9343 24.545 19.0479C24.4954 19.2399 24.4782 19.2763 24.3392 19.4309C24.1127 19.6773 23.9501 19.9855 23.9074 20.2384C23.8864 20.3543 23.8516 20.9249 23.8253 21.5075C23.8018 22.0917 23.7662 22.6903 23.7441 22.8413C23.7066 23.1185 23.6055 23.4195 23.5178 23.5183C23.4119 23.6422 23.4061 23.6389 22.3004 23.0218C21.1344 22.37 21.1373 22.3716 21.055 22.0501C21.0186 21.901 21.0243 21.8581 21.0875 21.7487C21.1291 21.6766 21.2315 21.5721 21.3241 21.5045L21.4839 21.3869L21.607 20.4047C21.7768 19.0367 21.7739 19.1809 21.6271 18.9645C21.5601 18.8618 21.4825 18.7245 21.4582 18.6606L21.4119 18.5485L21.0775 18.5974L20.7416 18.649L20.2357 18.3783C19.954 18.2299 19.6107 18.0423 19.4672 17.9595L19.2089 17.8103L19.1131 17.4989L19.0174 17.1874L18.7028 17.0164C18.4155 16.8577 17.9648 16.5512 17.8215 16.4151C17.7632 16.3636 17.7616 16.3663 17.7031 16.514C17.6526 16.6414 17.6299 16.6674 17.5727 16.6736C17.5332 16.6757 17.4884 16.6605 17.4701 16.6392C17.4193 16.5814 17.499 16.3107 17.6818 15.9146C17.8519 15.5537 17.9985 15.1936 17.9905 15.1677C17.9879 15.159 17.9427 15.1578 17.8884 15.1656C17.8136 15.1758 17.688 15.2741 17.3139 15.6238C16.7354 16.1617 16.5977 16.2743 16.186 16.5632C14.9448 17.4336 13.6792 18.0017 12.2264 18.3371C11.4706 18.5128 11.1134 18.5414 9.98072 18.5279C9.36473 18.521 9.32545 18.5161 9.2649 18.442C9.09186 18.2247 9.05103 17.8844 9.05914 16.6971C9.06293 16.2331 9.0546 15.7835 9.03949 15.7037L9.01039 15.5552L10.0377 15.4794C11.1601 15.398 11.5578 15.3322 12.12 15.1408C12.7648 14.9189 13.2774 14.674 14.1349 14.1763C14.9241 13.7175 15.2878 13.4258 15.4863 13.0885L15.5587 12.9631L15.4583 12.9051L15.3578 12.8471L15.5196 12.5668C15.609 12.4121 15.6756 12.2833 15.667 12.2783C15.6584 12.2734 15.603 12.2699 15.543 12.2744C15.331 12.2836 15.2086 12.277 15.1887 12.2584C15.1788 12.2491 15.1178 12.2353 15.0552 12.2311C14.9197 12.2205 14.8813 12.1876 14.3786 11.6199C14.0158 11.2076 13.8139 11.027 13.2998 10.6447C12.737 10.2273 12.3347 9.96303 11.6573 9.57193C10.558 8.93723 9.62941 8.30504 9.35521 8.00441C9.29578 7.94163 9.22592 7.83725 9.20289 7.7777C9.17014 7.70185 9.12219 7.6457 9.04469 7.60096C8.94423 7.54296 8.9303 7.52068 8.92353 7.40646L8.91872 7.27559L7.71584 6.58822L6.5145 5.89819L6.45622 6.0389L6.39795 6.17961L5.67463 5.762L4.95417 5.34604L5.0158 5.2393L5.07743 5.13255L4.33115 4.70168L3.58486 4.27081L3.51323 4.32197C3.47576 4.35371 3.43921 4.40377 3.43241 4.43543C3.4219 4.49341 3.40314 4.48614 3.16777 4.35025C2.92092 4.20773 2.91098 4.19843 2.8753 4.07464C2.85402 4.00542 2.82967 3.94155 2.81532 3.93326C2.80383 3.92663 2.7551 3.94475 2.70307 3.97521C2.61379 4.03041 2.61093 4.02875 2.36982 3.88955L2.12584 3.74869L2.19517 3.6286L2.26605 3.50584L1.56702 3.10581L0.870857 2.70744L0.88076 2.52457C0.894949 2.2481 1.06093 1.97387 1.29263 1.84433L1.46348 1.74727L2.16273 2.1403L2.8633 2.53766L3.19302 1.96656C3.37329 1.65433 3.59299 1.29368 3.6771 1.16789L3.8374 0.936641L3.90263 1.04903C3.96388 1.14844 4.00253 1.17431 4.29593 1.32236L4.61958 1.48431L4.4239 1.82323L4.22669 2.16482L4.178 2.71315C4.14995 3.01364 4.12162 3.27483 4.11238 3.29084C4.10005 3.31219 4.30496 3.44117 4.82736 3.74278L5.5593 4.16536L5.59627 4.10131C5.63171 4.03993 5.64186 4.04224 5.892 4.17242C6.10042 4.28208 6.19445 4.31145 6.35751 4.32732C6.6181 4.35323 6.995 4.25059 7.26305 4.07799L7.46254 3.95121L7.96926 4.2402C8.24768 4.40095 8.81202 4.7161 9.2229 4.93908C9.92964 5.32577 9.97136 5.3463 9.98762 5.29163C9.99945 5.23798 10.0138 5.24627 10.1869 5.36401C10.3413 5.47448 10.4062 5.50128 10.5587 5.52883C10.8826 5.5842 12.3376 6.33881 14.3168 7.47794L15.4176 8.10997L15.4745 8.06452C15.5089 8.03811 15.5651 8.01364 15.6017 8.00987C15.6604 8.00105 15.8533 8.0911 15.9803 8.18932C16.0017 8.20525 16.262 8.33774 16.557 8.48312C16.9469 8.67619 17.1407 8.78456 17.2633 8.88379C17.4031 8.99297 17.4592 9.02179 17.5781 9.04777C17.7132 9.07237 17.739 9.08728 17.8923 9.23273C17.9847 9.31806 18.1845 9.46904 18.3305 9.56754C18.4809 9.66504 18.5964 9.75664 18.5887 9.76998C18.5609 9.81801 18.2413 9.81491 18.1609 9.76851C18.0662 9.71383 17.8411 9.67283 17.8226 9.70485C17.8149 9.71819 17.9211 9.77951 18.0564 9.84341C18.2869 9.948 18.3083 9.96393 18.325 10.0412C18.3416 10.1184 18.3745 10.1409 19.2327 10.6364C19.7236 10.9198 20.13 11.1438 20.1347 11.1358C20.1408 11.1251 20.1412 11.0648 20.1387 11.0029C20.133 10.9 20.1675 10.8203 20.5162 10.2032L20.9005 9.51771L21.6083 9.91571C21.9974 10.1368 22.3186 10.3294 22.3255 10.344ZM21.7039 17.1479C21.6359 17.1264 21.5692 17.1093 21.5589 17.114C21.5472 17.1144 21.5204 17.1807 21.5004 17.2617C21.4644 17.3903 21.4684 17.4033 21.5372 17.3968C21.6746 17.3908 21.9554 17.3287 21.9693 17.3047C21.9878 17.2726 21.8643 17.2014 21.7039 17.1479ZM20.3728 16.6427C20.2422 16.763 20.1036 16.7577 19.985 16.6252C19.9425 16.5793 19.9043 16.5395 19.9014 16.5378C19.8957 16.5345 19.8561 16.5899 19.816 16.6593C19.7744 16.7313 19.6572 16.8879 19.5544 17.0064L19.3711 17.2244L19.4196 17.3591L19.4681 17.4939L19.9 17.7468C20.1382 17.8843 20.4586 18.0586 20.6111 18.1324L20.8902 18.2722L21.234 18.2003L21.5779 18.1284L21.6388 17.95C21.6724 17.852 21.726 17.7193 21.7602 17.6536C21.7927 17.5906 21.8134 17.5349 21.8019 17.5283C21.7904 17.5217 21.7346 17.5321 21.6729 17.5463C21.614 17.5621 21.4485 17.5769 21.3082 17.5813C21.1679 17.5857 20.9352 17.6043 20.7944 17.6227C20.5952 17.6429 20.5107 17.6368 20.4361 17.5937C20.3184 17.5258 20.2581 17.4447 20.2595 17.3494C20.2585 17.2848 20.2777 17.2781 20.4245 17.3023C20.7429 17.3474 20.9343 17.2943 21.1006 17.1056C21.1354 17.0652 21.1806 17.0201 21.2015 17.0038C21.2359 16.9773 21.1902 16.9438 20.8599 16.7603L20.4779 16.5468L20.3728 16.6427Z" fill="white"/>
</svg>
