<svg width="31" height="26" viewBox="0 0 31 26" fill="none" xmlns="http://www.w3.org/2000/svg">
<path d="M24.4125 17.5456H6.60687C6.39375 17.5456 6.21937 17.7251 6.21937 17.9444L6.21453 20.3372C6.21453 20.5565 6.38891 20.736 6.60203 20.736H24.4125C24.6256 20.736 24.8 20.5565 24.8 20.3372V17.9444C24.8 17.7251 24.6256 17.5456 24.4125 17.5456ZM24.4125 22.3311H6.59234C6.37922 22.3311 6.20484 22.5106 6.20484 22.7299L6.2 25.1227C6.2 25.342 6.37437 25.5215 6.5875 25.5215H24.4125C24.6256 25.5215 24.8 25.342 24.8 25.1227V22.7299C24.8 22.5106 24.6256 22.3311 24.4125 22.3311ZM24.4125 12.7601H6.61656C6.40344 12.7601 6.22906 12.9396 6.22906 13.1589L6.22422 15.5517C6.22422 15.771 6.39859 15.9505 6.61172 15.9505H24.4125C24.6256 15.9505 24.8 15.771 24.8 15.5517V13.1589C24.8 12.9396 24.6256 12.7601 24.4125 12.7601ZM29.5711 5.8311L16.3912 0.183198C16.108 0.0622542 15.8043 0 15.4976 0C15.1909 0 14.8872 0.0622542 14.6039 0.183198L1.42891 5.8311C0.566719 6.20496 0 7.07234 0 8.03941V25.1227C0 25.342 0.174375 25.5215 0.3875 25.5215H4.2625C4.47563 25.5215 4.65 25.342 4.65 25.1227V12.7601C4.65 11.8828 5.35719 11.1649 6.22906 11.1649H24.7709C25.6428 11.1649 26.35 11.8828 26.35 12.7601V25.1227C26.35 25.342 26.5244 25.5215 26.7375 25.5215H30.6125C30.8256 25.5215 31 25.342 31 25.1227V8.03941C31 7.07234 30.4333 6.20496 29.5711 5.8311Z" fill="white"/>
</svg>
