<svg width="32" height="29" viewBox="0 0 32 29" fill="none" xmlns="http://www.w3.org/2000/svg">
<path d="M12.1205 23.679C11.9566 23.3485 11.6711 23.315 11.5555 23.315C11.4399 23.315 11.1544 23.3479 10.9988 23.6606L10.5727 24.517C10.2188 25.2304 9.18218 25.1517 8.93496 24.4003L7.99997 21.5826L7.41052 23.3624C7.0833 24.3484 6.1672 25.011 5.13276 25.011H4.44443C3.95332 25.011 3.55554 24.6113 3.55554 24.1178C3.55554 23.6243 3.95332 23.2245 4.44443 23.2245H5.13276C5.40109 23.2245 5.63886 23.0526 5.72386 22.7969L6.73442 19.7464C6.91775 19.1988 7.42552 18.8303 7.99997 18.8303C8.57441 18.8303 9.08218 19.1982 9.26496 19.7464L10.0361 22.0711C11.1333 21.1673 13.0394 21.5296 13.7027 22.8617C13.8077 23.0727 14.0077 23.1938 14.2227 23.2111V18.6265L21.3338 11.5313V8.93252H13.7777C13.0444 8.93252 12.4444 8.32957 12.4444 7.59264V0H1.33333C0.594442 0 0 0.597362 0 1.33988V27.2442C0 27.9867 0.594442 28.584 1.33333 28.584H19.9999C20.7388 28.584 21.3332 27.9867 21.3332 27.2442V25.011L14.2222 25.0049C13.3266 24.9876 12.5233 24.4868 12.1205 23.679ZM21.3332 6.80546C21.3332 6.45374 21.1944 6.11319 20.9444 5.86196L15.5055 0.390798C15.2555 0.139571 14.9166 0 14.561 0H14.2222V7.14601H21.3332V6.80546ZM15.9999 19.3702V23.2245H19.8327L28.8149 14.1368L25.0438 10.3472L15.9999 19.3702ZM31.5854 9.34174L29.8149 7.56249C29.2626 7.00756 28.3665 7.00756 27.8143 7.56249L26.3004 9.08381L30.0715 12.8734L31.5854 11.3521C32.1382 10.7972 32.1382 9.89667 31.5854 9.34174Z" fill="white"/>
</svg>
