<svg width="31" height="31" viewBox="0 0 31 31" fill="none" xmlns="http://www.w3.org/2000/svg">
<path d="M30.2734 13.5625H28.435C27.5927 7.89077 23.1092 3.40734 17.4375 2.56501V0.726563C17.4375 0.325318 17.1122 0 16.7109 0L14.2891 0C13.8878 0 13.5625 0.325318 13.5625 0.726563V2.56501C7.89077 3.40734 3.40734 7.89077 2.56501 13.5625H0.726562C0.325318 13.5625 0 13.8878 0 14.2891L0 16.7109C0 17.1122 0.325318 17.4375 0.726562 17.4375H2.56501C3.40734 23.1092 7.89077 27.5927 13.5625 28.435V30.2734C13.5625 30.6747 13.8878 31 14.2891 31H16.7109C17.1122 31 17.4375 30.6747 17.4375 30.2734V28.435C23.1092 27.5927 27.5927 23.1092 28.435 17.4375H30.2734C30.6747 17.4375 31 17.1122 31 16.7109V14.2891C31 13.8878 30.6747 13.5625 30.2734 13.5625ZM17.4375 24.4993V22.0391C17.4375 21.6378 17.1122 21.3125 16.7109 21.3125H14.2891C13.8878 21.3125 13.5625 21.6378 13.5625 22.0391V24.4993C10.0402 23.7484 7.25249 20.9639 6.50068 17.4375H8.96094C9.36218 17.4375 9.6875 17.1122 9.6875 16.7109L9.6875 14.2891C9.6875 13.8878 9.36218 13.5625 8.96094 13.5625H6.50068C7.25158 10.0402 10.0361 7.25249 13.5625 6.50068V8.96094C13.5625 9.36218 13.8878 9.6875 14.2891 9.6875L16.7109 9.6875C17.1122 9.6875 17.4375 9.36218 17.4375 8.96094V6.50068C20.9598 7.25158 23.7475 10.0361 24.4993 13.5625H22.0391C21.6378 13.5625 21.3125 13.8878 21.3125 14.2891V16.7109C21.3125 17.1122 21.6378 17.4375 22.0391 17.4375H24.4993C23.7484 20.9598 20.9639 23.7475 17.4375 24.4993ZM17.4375 15.5C17.4375 16.57 16.57 17.4375 15.5 17.4375C14.43 17.4375 13.5625 16.57 13.5625 15.5C13.5625 14.43 14.43 13.5625 15.5 13.5625C16.57 13.5625 17.4375 14.43 17.4375 15.5Z" fill="white"/>
</svg>
