<svg width="25" height="25" viewBox="0 0 25 25" fill="none" xmlns="http://www.w3.org/2000/svg">
<path d="M22.9394 12.503C22.9393 11.1349 23.7951 9.96729 25 9.50414C24.6862 8.19053 24.1662 6.93496 23.4594 5.78416C23.0478 5.96697 22.6023 6.06132 22.152 6.06112C21.3303 6.06112 20.5089 5.7479 19.8817 5.12088C18.9141 4.15324 18.6937 2.72206 19.2189 1.54212C18.0685 0.834758 16.8131 0.314259 15.4996 0C15.0372 1.20631 13.8689 2.06315 12.5 2.06315C11.1312 2.06315 9.96296 1.20631 9.50046 0C8.18698 0.314253 6.93164 0.834777 5.78118 1.54218C6.30644 2.722 6.08607 4.15311 5.11836 5.12095C4.49134 5.74797 3.66979 6.06125 2.84811 6.06125C2.3977 6.06143 1.95226 5.96705 1.54063 5.78423C0.833728 6.93499 0.313733 8.19055 0 9.50414C1.20501 9.96716 2.06068 11.1349 2.06068 12.503C2.06068 13.8707 1.20573 15.0379 0.0014325 15.5013C0.315846 16.8147 0.836454 18.07 1.54388 19.2205C1.95461 19.0387 2.39886 18.9448 2.84805 18.945C3.66979 18.945 4.49121 19.2583 5.11829 19.8853C6.08451 20.8515 6.30573 22.2799 5.78333 23.4588C6.9339 24.1659 8.18928 24.686 9.50273 25C9.9668 23.7969 11.1333 22.943 12.5 22.943C13.8667 22.943 15.0332 23.7968 15.4972 25C16.8107 24.686 18.0661 24.1658 19.2167 23.4587C18.6944 22.2799 18.9156 20.8515 19.8818 19.8853C20.5087 19.2582 21.3303 18.9449 22.1519 18.9449C22.5969 18.9449 23.0419 19.0368 23.4561 19.2205C24.1635 18.07 24.6842 16.8147 24.9986 15.5013C23.7943 15.0378 22.9394 13.8705 22.9394 12.503ZM12.5586 17.7018C9.67448 17.7018 7.35026 15.3645 7.35026 12.4935C7.35026 9.6223 9.67448 7.28514 12.5586 7.28514C15.4426 7.28514 17.7669 9.6223 17.7669 12.4935C17.7669 15.3645 15.4426 17.7018 12.5586 17.7018Z" fill="white"/>
</svg>
