<svg width="22" height="40" viewBox="0 0 22 40" fill="none" xmlns="http://www.w3.org/2000/svg">
<path d="M10.8097 5.83364C10.1474 5.83364 9.60826 5.29455 9.60826 4.63151C9.60826 3.96854 10.1474 3.42938 10.8097 3.42938C11.472 3.42938 12.0111 3.96854 12.0111 4.63151C12.0111 5.29455 11.472 5.83364 10.8097 5.83364ZM10.8097 4.18737C10.564 4.18737 10.3648 4.38593 10.3648 4.63228C10.3648 4.87793 10.564 5.0772 10.8097 5.0772C11.0553 5.0772 11.2546 4.87793 11.2546 4.63228C11.2546 4.38593 11.0553 4.18737 10.8097 4.18737Z" fill="white"/>
<path d="M10.8096 6.85811C9.58189 6.85811 8.58304 5.85996 8.58304 4.63228C8.58304 3.40524 9.58126 2.40639 10.8096 2.40639C12.0373 2.40639 13.0354 3.40524 13.0354 4.63228C13.0354 5.85926 12.0373 6.85811 10.8096 6.85811ZM10.8096 2.89571C9.85183 2.89571 9.07307 3.67447 9.07307 4.63221C9.07307 5.58933 9.85176 6.36872 10.8096 6.36872C11.7674 6.36872 12.5461 5.58926 12.5461 4.63221C12.5461 3.67447 11.7674 2.89571 10.8096 2.89571Z" fill="white"/>
<path d="M10.8096 21.9388C12.602 21.9388 14.0605 23.3974 14.0605 25.1904C14.0605 26.9828 12.602 28.4414 10.8096 28.4414C9.01723 28.4414 7.55868 26.9828 7.55868 25.1904C7.55875 23.3974 9.01723 21.9388 10.8096 21.9388ZM10.8096 26.3933C11.4739 26.3933 12.0131 25.8541 12.0131 25.1898C12.0131 24.5249 11.4739 23.9857 10.8096 23.9857C10.1453 23.9857 9.60615 24.5249 9.60615 25.1898C9.60615 25.854 10.1453 26.3933 10.8096 26.3933Z" fill="white"/>
<path d="M0.0163113 32.5169L0.565535 26.2728C0.708208 24.6513 0.661049 22.0278 0.460518 20.4123L0.120625 17.6662C-0.0799762 16.0508 0.991586 14.2706 2.51073 13.6884L5.35645 12.6007C6.8763 12.0199 8.10926 11.017 8.10926 10.3621C8.10926 9.70587 7.49204 8.00364 7.2067 6.42192C7.06409 5.63374 6.96309 4.66994 6.96309 3.52637C6.96309 2.16946 7.44094 1.32208 8.06084 0.793059C9.29724 -0.264355 12.3234 -0.264354 13.5598 0.793059C14.1797 1.32208 14.6577 2.16946 14.6577 3.52637C14.6577 4.66994 14.5566 5.6331 14.414 6.42192C14.1286 8.00365 13.5127 9.7058 13.5127 10.3621C13.5127 11.0177 14.7445 12.0199 16.2643 12.6007L19.11 13.6884C20.6292 14.2699 21.7013 16.0508 21.5001 17.6662L21.1602 20.4123C20.959 22.0278 20.9132 24.6513 21.0552 26.2728L21.6044 32.5169C21.7471 34.1382 20.9441 36.4261 19.5401 37.2499C17.7423 38.3052 14.8684 39.4252 10.8098 39.3821C6.75116 39.4252 3.87714 38.3052 2.08074 37.2505C0.676534 36.4261 -0.126362 34.1382 0.0163113 32.5169ZM13.5706 4.63228C13.5706 3.11046 12.3315 1.87201 10.8096 1.87201C9.28781 1.87201 8.04873 3.11039 8.04873 4.63228C8.04873 6.1541 9.28781 7.39255 10.8097 7.39255C12.3315 7.39185 13.5706 6.15403 13.5706 4.63228ZM10.8096 32.6549C14.9261 32.6549 18.2753 29.3056 18.2753 25.1898C18.2753 21.0733 14.9261 17.7241 10.8096 17.7241C6.69316 17.7241 3.34396 21.0733 3.34396 25.1898C3.34396 29.3063 6.69316 32.6549 10.8096 32.6549Z" fill="white"/>
<path d="M10.8096 19.1692C14.1298 19.1692 16.8302 21.8702 16.8302 25.1898C16.8302 28.5094 14.1291 31.2104 10.8096 31.2104C7.4893 31.2104 4.789 28.5094 4.789 25.1898C4.789 21.8695 7.4893 19.1692 10.8096 19.1692ZM10.8096 29.8858C13.3989 29.8858 15.5056 27.7791 15.5056 25.1898C15.5056 22.6005 13.3989 20.4938 10.8096 20.4938C8.22026 20.4938 6.11353 22.6005 6.11353 25.1898C6.11353 27.7791 8.22026 29.8858 10.8096 29.8858Z" fill="white"/>
</svg>
