<svg width="35" height="36" viewBox="0 0 35 36" fill="none" xmlns="http://www.w3.org/2000/svg">
<path fill-rule="evenodd" clip-rule="evenodd" d="M11.0209 5.82298L5.62706 11.3293L8.49013 12.2814L11.9521 8.74722L11.0209 5.82298ZM18.6781 18.3277C19.3909 19.0553 19.3909 20.2348 18.6774 20.9632C17.9647 21.6908 16.8107 21.6894 16.0979 20.9618C15.3858 20.2348 15.3844 19.0568 16.0972 18.3291C16.8107 17.6008 17.9661 17.6008 18.6781 18.3277ZM18.367 18.6453C17.8261 18.0931 16.9493 18.0917 16.4069 18.6453C15.8667 19.1968 15.8667 20.0934 16.4076 20.6456C16.9493 21.1985 17.8275 21.1985 18.3677 20.647C18.9101 20.0934 18.9086 19.1983 18.367 18.6453ZM18.2298 21.8662L18.7955 22.4437L16.4889 24.7984L18.519 26.8709L20.8256 24.5162L24.0564 27.8143L27.1196 24.6873L21.9584 19.4184L22.8741 18.4836L18.2114 13.7237L17.2957 14.6585L12.2017 9.45825L9.13855 12.5853L12.9343 16.4603L10.6277 18.815L12.6585 20.8881L14.9651 18.5334L15.2133 18.7868C14.8909 19.6371 15.0669 20.6427 15.7387 21.3285C16.4118 22.0157 17.3954 22.1954 18.2298 21.8662ZM34.8094 29.9705L32.7969 27.9161L27.2688 33.5596L29.2812 35.614L34.8094 29.9705ZM32.4123 27.5234L31.0666 26.1497L25.5385 31.7932L26.8841 33.1669L32.4123 27.5234ZM30.6997 25.9122L25.3058 31.4186L24.3718 28.4943L27.8337 24.9601L30.6997 25.9122ZM20.4664 12.9694L23.6137 16.1823L22.4824 17.3373L19.335 14.1243L20.4664 12.9694ZM10.3548 5.00585L5.62706 0.179514L0.0988967 5.82299L4.82661 10.6493L10.3548 5.00585Z" fill="white"/>
</svg>
